<svg xmlns="http://www.w3.org/2000/svg" viewBox="0 0 32 32" width="32" height="32">
  <!-- Background circle -->
  <circle cx="16" cy="16" r="15" fill="#1a1a1a" stroke="#333" stroke-width="1"/>
  
  <!-- Stylized person silhouette -->
  <path d="M12 8 L20 8 L20 10 L18 10 L18 12 L14 12 L14 10 L12 10 Z" fill="#666"/>
  <rect x="14" y="12" width="4" height="8" fill="#666"/>
  
  <!-- Arms outstretched -->
  <rect x="8" y="14" width="2" height="4" fill="#666"/>
  <rect x="22" y="14" width="2" height="4" fill="#666"/>
  
  <!-- Rain drops -->
  <circle cx="10" cy="6" r="0.5" fill="#999"/>
  <circle cx="14" cy="4" r="0.5" fill="#999"/>
  <circle cx="18" cy="6" r="0.5" fill="#999"/>
  <circle cx="22" cy="4" r="0.5" fill="#999"/>
  
  <!-- "C" and "M" letters on arms -->
  <path d="M7 15 L9 15 L9 17 L7 17" stroke="#fff" stroke-width="0.5" fill="none"/>
  <path d="M23 15 L25 15 L25 16 L24 16 L24 17 L23 17" stroke="#fff" stroke-width="0.5" fill="none"/>
  
  <!-- Defiant expression -->
  <circle cx="13" cy="10" r="0.3" fill="#fff"/>
  <circle cx="19" cy="10" r="0.3" fill="#fff"/>
  <path d="M14 11 L18 11" stroke="#fff" stroke-width="0.3" fill="none"/>
</svg>
